# xmcd
#
# Track frame offsets:
#	150
#	20428
#	45509
#	73586
#	109512
#	139218
#	178429
#	208749
#	245650
#	277024
#	305305
#
# Disc length: 4611 seconds
#
# Revision: 1
# Processed by: cddbd v1.5.1PL2 Copyright (c) Steve Scherf et al.
# Submitted via: audiograbber 1.83.01
#
DISCID=a412010b
DTITLE=Various Artist - 2003-03  PromoUK CD2 House
DYEAR=2003
DGENRE=House
TTITLE0=TBS Feat. Ramalski - Extraterrestrial Manoeuvres In The Dark (Original 
TTITLE0=Mix) [105.8bpm]
TTITLE1=DJ Pezario Vs. UB40 - Food For Thought 2003 (Original Mix) [128.7bpm]
TTITLE2=Grand Popo Football Club - Men Are Not Nice Guys (Groovefinder Mix) [12
TTITLE2=5.7bpm]
TTITLE3=Groove Fiction - Back Where I Belong (Featuring Vermettya Royster) [126
TTITLE3=bpm]
TTITLE4=Zum - Havana Goodtime (Original Mix) [126.8bpm]
TTITLE5=Praha - Closer (West London Deep Vocal Mix) [128.1bpm]
TTITLE6=Blakkat Feat. Aswan - The Rite Place (Onionz Mix) [127.5bpm]
TTITLE7=Blak Beat Niks Feat. Dajae - One Day At A Time (Stone's "Big 10" Club M
TTITLE7=ix) [127.2bpm]
TTITLE8=Sam La More - Takin' Hold (Main Mix) [128.2bpm]
TTITLE9=Puretone - Stuck In A Groove (Who Da Funk Remix) [130.8bpm]
TTITLE10=Planet Funk - Who Said (Possillipo Mix) [128.2bpm]
EXTD=
EXTT0=
EXTT1=
EXTT2=
EXTT3=
EXTT4=
EXTT5=
EXTT6=
EXTT7=
EXTT8=
EXTT9=
EXTT10=
PLAYORDER=
